<?xml version="1.0" encoding="UTF-8" standalone="no"?>
<!-- Created with Inkscape (http://www.inkscape.org/) -->

<svg
   xmlns:dc="http://purl.org/dc/elements/1.1/"
   xmlns:cc="http://creativecommons.org/ns#"
   xmlns:rdf="http://www.w3.org/1999/02/22-rdf-syntax-ns#"
   xmlns:svg="http://www.w3.org/2000/svg"
   xmlns="http://www.w3.org/2000/svg"
   xmlns:sodipodi="http://sodipodi.sourceforge.net/DTD/sodipodi-0.dtd"
   xmlns:inkscape="http://www.inkscape.org/namespaces/inkscape"
   width="74mm"
   height="105mm"
   viewBox="0 0 74 105"
   version="1.1"
   id="svg8"
   inkscape:version="0.92.4 (5da689c313, 2019-01-14)"
   sodipodi:docname="A7.svg">
  <defs
     id="defs2">
    <clipPath
       clipPathUnits="userSpaceOnUse"
       id="clipPath318-1">
      <path
         inkscape:connector-curvature="0"
         d="m 1393.9136,-1088.701 c 0,0 -90.7094,0 -90.7094,0 0,0 0,-60.4724 0,-60.4724 0,0 90.7094,0 90.7094,0 0,0 0,60.4724 0,60.4724 z"
         id="path320-8"
         style="stroke-width:1.06666672" />
    </clipPath>
  </defs>
  <sodipodi:namedview
     id="base"
     pagecolor="#ffffff"
     bordercolor="#666666"
     borderopacity="1.0"
     inkscape:pageopacity="0.0"
     inkscape:pageshadow="2"
     inkscape:zoom="1.979899"
     inkscape:cx="127.67715"
     inkscape:cy="279.60669"
     inkscape:document-units="mm"
     inkscape:current-layer="layer9"
     showgrid="false"
     inkscape:window-width="960"
     inkscape:window-height="1016"
     inkscape:window-x="960"
     inkscape:window-y="27"
     inkscape:window-maximized="0" />
  <metadata
     id="metadata5">
    <rdf:RDF>
      <cc:Work
         rdf:about="">
        <dc:format>image/svg+xml</dc:format>
        <dc:type
           rdf:resource="http://purl.org/dc/dcmitype/StillImage" />
        <dc:title></dc:title>
      </cc:Work>
    </rdf:RDF>
  </metadata>
  <g
     inkscape:label="size"
     inkscape:groupmode="layer"
     id="layer1"
     transform="translate(0,-192)"
     style="display:inline">
    <rect
       style="fill:none;fill-opacity:1;stroke:#000000;stroke-width:2.701967;stroke-miterlimit:4;stroke-dasharray:none"
       id="rect10"
       width="63.298035"
       height="93.298027"
       x="5.3509827"
       y="197.85098"
       rx="3.5534737"
       ry="3.8487499" />
  </g>
  <g
     inkscape:groupmode="layer"
     id="layer7"
     inkscape:label="frame"
     style="display:inline">
    <rect
       style="fill:none;fill-opacity:1;stroke:#000000;stroke-width:0.1;stroke-miterlimit:4;stroke-dasharray:none"
       id="rect10-3"
       width="69.695419"
       height="99.695419"
       x="2.1522903"
       y="2.6522903"
       rx="3.9126155"
       ry="4.1126561" />
  </g>
  <g
     inkscape:groupmode="layer"
     id="layer3"
     inkscape:label="header"
     style="display:inline">
    <g
       inkscape:groupmode="layer"
       id="layer6"
       inkscape:label="bar"
       style="display:inline">
      <rect
         style="fill:#0000ff;fill-opacity:1;stroke:#000000;stroke-width:1;stroke-miterlimit:4;stroke-dasharray:none"
         id="rect881"
         width="62.100838"
         height="13.38203"
         x="5.9495811"
         y="5.8509827"
         rx="5.2072439"
         ry="4.5458832" />
    </g>
    <g
       inkscape:groupmode="layer"
       id="layer9"
       inkscape:label="headerText">
      <text
         xml:space="preserve"
         style="font-style:normal;font-weight:normal;font-size:3.52777767px;line-height:1.25;font-family:sans-serif;text-align:center;letter-spacing:0px;word-spacing:0px;text-anchor:middle;display:inline;fill:#000000;fill-opacity:1;stroke:none;stroke-width:0.26458332"
         x="40.941513"
         y="11.64042"
         id="text951"><tspan
           sodipodi:role="line"
           x="40.941513"
           y="11.64042"
           style="text-align:center;text-anchor:middle;fill:#ffffff;stroke-width:0.26458332"
           id="tspan953">Title with a lot of Text</tspan><tspan
           sodipodi:role="line"
           x="40.941513"
           y="16.050142"
           style="text-align:center;text-anchor:middle;fill:#ffffff;stroke-width:0.26458332"
           id="tspan957">and mulitiline Comment</tspan></text>
    </g>
    <g
       inkscape:groupmode="layer"
       id="layer5"
       inkscape:label="symbol2"
       style="display:none">
      <g
         inkscape:label="mountpoint2"
         id="g919"
         inkscape:groupmode="layer">
        <rect
           ry="3.5165038"
           rx="3.661792"
           y="7.7810884"
           x="19.108849"
           height="9.301053"
           width="9.301053"
           id="rect917"
           style="fill:none;fill-opacity:1;stroke:#ffffff;stroke-width:0.69894725;stroke-miterlimit:4;stroke-dasharray:none" />
      </g>
    </g>
    <g
       inkscape:groupmode="layer"
       id="layer4"
       inkscape:label="symbol1"
       style="display:inline">
      <g
         inkscape:groupmode="layer"
         id="layer8"
         inkscape:label="mountpoint1">
        <rect
           ry="3.5165038"
           rx="3.661792"
           y="7.7810884"
           x="8.1061697"
           height="9.301053"
           width="9.301053"
           id="rect917-6"
           style="display:inline;fill:none;fill-opacity:1;stroke:#ffffff;stroke-width:0.69894725;stroke-miterlimit:4;stroke-dasharray:none" />
      </g>
    </g>
  </g>
  <g
     inkscape:groupmode="layer"
     id="layer2"
     inkscape:label="flag"
     style="display:none">
    <path
       d="m 20.158967,45.552873 c 0,0 -10.4578147,0 -10.4578147,0 0,0 0,-6.971818 0,-6.971818 0,0 10.4578147,0 10.4578147,0 0,0 0,6.971818 0,6.971818 z"
       style="display:inline;fill:#1f5ab1;fill-opacity:1;fill-rule:nonzero;stroke:none;stroke-width:0.26458332;enable-background:new"
       id="path312"
       inkscape:connector-curvature="0" />
    <g
       style="display:inline;enable-background:new"
       transform="matrix(0.1152892,0,0,0.1152892,-140.54422,171.06834)"
       id="g314">
      <g
         id="g316"
         clip-path="url(#clipPath318-1)">
        <path
           d="m 1304.3698,-1152.2985 c 0,0 3.8521,0 3.8521,0 0,0 1.0708,-3.6379 1.0708,-3.6379 0,0 1.2854,3.6379 1.2854,3.6379 0,0 3.8501,0 3.8501,0 0,0 -3.2105,2.1402 -3.2105,2.1402 0,0 1.2833,3.638 1.2833,3.638 0,0 -3.2083,-2.1401 -3.2083,-2.1401 0,0 -2.9958,2.1401 -2.9958,2.1401 0,0 1.0708,-3.638 1.0708,-3.638 0,0 -2.9979,-2.1402 -2.9979,-2.1402 0,0 0,0 0,0"
           style="fill:#ffffff;fill-opacity:1;fill-rule:nonzero;stroke:none"
           id="path322"
           inkscape:connector-curvature="0" />
        <path
           d="m 1312.05,-1144.5812 c 0,0 3.8521,0 3.8521,0 0,0 1.0708,-3.6376 1.0708,-3.6376 0,0 1.2854,3.6376 1.2854,3.6376 0,0 3.8501,0 3.8501,0 0,0 -3.2105,2.14 -3.2105,2.14 0,0 1.2833,3.637 1.2833,3.637 0,0 -3.2083,-2.1385 -3.2083,-2.1385 0,0 -2.9958,2.1385 -2.9958,2.1385 0,0 1.0708,-3.637 1.0708,-3.637 0,0 -2.9979,-2.14 -2.9979,-2.14 0,0 0,0 0,0"
           style="fill:#ffffff;fill-opacity:1;fill-rule:nonzero;stroke:none"
           id="path324"
           inkscape:connector-curvature="0" />
        <path
           d="m 1319.7292,-1136.8646 c 0,0 3.852,0 3.852,0 0,0 1.0709,-3.6375 1.0709,-3.6375 0,0 1.2854,3.6375 1.2854,3.6375 0,0 3.85,0 3.85,0 0,0 -3.2104,2.1407 -3.2104,2.1407 0,0 1.2833,3.6374 1.2833,3.6374 0,0 -3.2083,-2.1395 -3.2083,-2.1395 0,0 -2.9959,2.1395 -2.9959,2.1395 0,0 1.0708,-3.6374 1.0708,-3.6374 0,0 -2.9978,-2.1407 -2.9978,-2.1407 0,0 0,0 0,0"
           style="fill:#ffffff;fill-opacity:1;fill-rule:nonzero;stroke:none"
           id="path326"
           inkscape:connector-curvature="0" />
        <path
           d="m 1327.4083,-1129.1474 c 0,0 3.8521,0 3.8521,0 0,0 1.0709,-3.638 1.0709,-3.638 0,0 1.2853,3.638 1.2853,3.638 0,0 3.8501,0 3.8501,0 0,0 -3.2105,2.1401 -3.2105,2.1401 0,0 1.2834,3.638 1.2834,3.638 0,0 -3.2083,-2.14 -3.2083,-2.14 0,0 -2.9958,2.14 -2.9958,2.14 0,0 1.0708,-3.638 1.0708,-3.638 0,0 -2.998,-2.1401 -2.998,-2.1401 0,0 0,0 0,0"
           style="fill:#ffffff;fill-opacity:1;fill-rule:nonzero;stroke:none"
           id="path328"
           inkscape:connector-curvature="0" />
        <path
           d="m 1335.0885,-1121.4302 c 0,0 3.8521,0 3.8521,0 0,0 1.0708,-3.637 1.0708,-3.637 0,0 1.2855,3.637 1.2855,3.637 0,0 3.85,0 3.85,0 0,0 -3.2105,2.1401 -3.2105,2.1401 0,0 1.2834,3.637 1.2834,3.637 0,0 -3.2084,-2.1396 -3.2084,-2.1396 0,0 -2.9957,2.1396 -2.9957,2.1396 0,0 1.0708,-3.637 1.0708,-3.637 0,0 -2.998,-2.1401 -2.998,-2.1401 0,0 0,0 0,0"
           style="fill:#ffffff;fill-opacity:1;fill-rule:nonzero;stroke:none"
           id="path330"
           inkscape:connector-curvature="0" />
        <path
           d="m 1342.7687,-1113.7136 c 0,0 3.8521,0 3.8521,0 0,0 1.0708,-3.6374 1.0708,-3.6374 0,0 1.2855,3.6374 1.2855,3.6374 0,0 3.8511,0 3.8511,0 0,0 -3.2116,2.1407 -3.2116,2.1407 0,0 1.2835,3.6375 1.2835,3.6375 0,0 -3.2085,-2.1396 -3.2085,-2.1396 0,0 -2.9958,2.1396 -2.9958,2.1396 0,0 1.0709,-3.6375 1.0709,-3.6375 0,0 -2.998,-2.1407 -2.998,-2.1407 0,0 0,0 0,0"
           style="fill:#ffffff;fill-opacity:1;fill-rule:nonzero;stroke:none"
           id="path332"
           inkscape:connector-curvature="0" />
        <path
           d="m 1350.4479,-1105.9964 c 0,0 3.8531,0 3.8531,0 0,0 1.0708,-3.6379 1.0708,-3.6379 0,0 1.2855,3.6379 1.2855,3.6379 0,0 3.85,0 3.85,0 0,0 -3.2104,2.1411 -3.2104,2.1411 0,0 1.2834,3.6376 1.2834,3.6376 0,0 -3.2085,-2.1391 -3.2085,-2.1391 0,0 -2.9958,2.1391 -2.9958,2.1391 0,0 1.0709,-3.6376 1.0709,-3.6376 0,0 -2.999,-2.1411 -2.999,-2.1411 0,0 0,0 0,0"
           style="fill:#ffffff;fill-opacity:1;fill-rule:nonzero;stroke:none"
           id="path334"
           inkscape:connector-curvature="0" />
        <path
           d="m 1358.1281,-1098.2802 c 0,0 3.8522,0 3.8522,0 0,0 1.0708,-3.6376 1.0708,-3.6376 0,0 1.2853,3.6376 1.2853,3.6376 0,0 3.8501,0 3.8501,0 0,0 -3.2105,2.1422 -3.2105,2.1422 0,0 1.2834,3.637 1.2834,3.637 0,0 -3.2083,-2.1391 -3.2083,-2.1391 0,0 -2.9958,2.1391 -2.9958,2.1391 0,0 1.0708,-3.637 1.0708,-3.637 0,0 -2.998,-2.1422 -2.998,-2.1422 0,0 0,0 0,0"
           style="fill:#ffffff;fill-opacity:1;fill-rule:nonzero;stroke:none"
           id="path336"
           inkscape:connector-curvature="0" />
        <path
           d="m 1365.8073,-1090.5625 c 0,0 3.8521,0 3.8521,0 0,0 1.0708,-3.637 1.0708,-3.637 0,0 1.2855,3.637 1.2855,3.637 0,0 3.8499,0 3.8499,0 0,0 -3.2103,2.1406 -3.2103,2.1406 0,0 1.2833,3.6375 1.2833,3.6375 0,0 -3.2084,-2.1395 -3.2084,-2.1395 0,0 -2.9958,2.1395 -2.9958,2.1395 0,0 1.0708,-3.6375 1.0708,-3.6375 0,0 -2.9979,-2.1406 -2.9979,-2.1406 0,0 0,0 0,0"
           style="fill:#ffffff;fill-opacity:1;fill-rule:nonzero;stroke:none"
           id="path338"
           inkscape:connector-curvature="0" />
      </g>
    </g>
    <path
       d="m 18.85379,45.552873 c 0,0 -6.988796,-6.971818 -6.988796,-6.971818 0,0 6.988796,0 6.988796,0 0,0 0,6.971818 0,6.971818 z"
       style="display:inline;fill:#fcd01b;fill-opacity:1;fill-rule:nonzero;stroke:none;stroke-width:0.26458332;enable-background:new"
       id="path340"
       inkscape:connector-curvature="0" />
    <path
       d="m 20.158967,45.552873 c 0,0 -10.4578147,0 -10.4578147,0 0,0 0,-6.971818 0,-6.971818 0,0 10.4578147,0 10.4578147,0 0,0 0,6.971818 0,6.971818 z"
       style="display:inline;fill:none;stroke:#231f20;stroke-width:0.03486222;stroke-linecap:butt;stroke-linejoin:miter;stroke-miterlimit:4;stroke-dasharray:none;stroke-opacity:1;enable-background:new"
       id="path342"
       inkscape:connector-curvature="0" />
  </g>
</svg>
